<?xml version="1.0" encoding="UTF-8" standalone="no"?>
<!-- Created with Inkscape (http://www.inkscape.org/) -->

<svg
   width="5cm"
   height="8.5cm"
   viewBox="0 0 50.000001 85"
   version="1.1"
   id="svg5"
   inkscape:export-filename="pizza-rape.pdf"
   inkscape:export-xdpi="96"
   inkscape:export-ydpi="96"
   inkscape:version="1.2.2 (b0a84865, 2022-12-01)"
   sodipodi:docname="pizza-rape-card.svg"
   xmlns:inkscape="http://www.inkscape.org/namespaces/inkscape"
   xmlns:sodipodi="http://sodipodi.sourceforge.net/DTD/sodipodi-0.dtd"
   xmlns="http://www.w3.org/2000/svg"
   xmlns:svg="http://www.w3.org/2000/svg">
  <sodipodi:namedview
     id="namedview7"
     pagecolor="#ffffff"
     bordercolor="#000000"
     borderopacity="0.25"
     inkscape:showpageshadow="2"
     inkscape:pageopacity="0.0"
     inkscape:pagecheckerboard="0"
     inkscape:deskcolor="#d1d1d1"
     inkscape:document-units="mm"
     showgrid="false"
     inkscape:zoom="2"
     inkscape:cx="99.25"
     inkscape:cy="163"
     inkscape:window-width="1512"
     inkscape:window-height="922"
     inkscape:window-x="0"
     inkscape:window-y="32"
     inkscape:window-maximized="0"
     inkscape:current-layer="g9242" />
  <defs
     id="defs2" />
  <g
     inkscape:label="background"
     inkscape:groupmode="layer"
     id="layer1"
     style="display:inline">
    <path
       id="rect234"
       style="display:inline;fill:#ffffff;fill-opacity:1;stroke:#000000;stroke-width:0;stroke-opacity:0.2"
       inkscape:label="canvas"
       d="M 0,0 V 79.999768 H 50.000049 V 0 Z" />
  </g>
  <g
     inkscape:label="text"
     inkscape:groupmode="layer"
     id="g9242"
     style="display:inline">
    <rect
       style="display:inline;fill:#000000;fill-opacity:1;stroke-width:2.01619;stroke-opacity:0.952941"
       id="rect1816-6"
       width="50"
       height="85"
       x="0"
       y="0"
       inkscape:label="bl-bg" />
    <path
       id="rect1816"
       style="display:inline;fill:#ffd600;fill-opacity:1;stroke-width:2.01619;stroke-opacity:0.952941"
       inkscape:label="yel-bg"
       d="M 0,0 V 84.99998 H 50.000049 V 42.354521 c -1.460577,0.624461 -3.017663,1.02342 -4.6731,1.193208 l -0.249597,8.654769 H 36.339384 L 36.006588,35.392155 h 4.66018 c 1.276005,0 2.469024,-0.194044 3.578593,-0.582393 1.10957,-0.443828 2.052586,-1.026477 2.829285,-1.747697 0.832177,-0.776699 1.470267,-1.664274 1.914095,-2.662887 0.499306,-1.054091 0.748792,-2.163431 0.748792,-3.328479 0,-1.220526 -0.249486,-2.358104 -0.748792,-3.412195 -0.443828,-1.109569 -1.081918,-2.024865 -1.914095,-2.746085 -0.832177,-0.776699 -1.802914,-1.387069 -2.912484,-1.830896 -1.109569,-0.443828 -2.302588,-0.665593 -3.578593,-0.665593 -2.330096,0 -4.410689,0.499487 -6.241479,1.4981 -1.775311,0.998613 -3.300977,2.357954 -4.576982,4.077787 l -7.822261,-5.659086 c 2.219139,-2.829402 4.826424,-5.10404 7.822261,-6.823873 3.051316,-1.775311 6.740737,-2.6628863 11.068059,-2.6628863 2.773923,0 5.353488,0.4717666 7.739062,1.4149003 0.49191,0.178877 0.965197,0.376297 1.42782,0.584461 V 0 Z m 40.666768,56.945878 c 1.664355,0 3.051417,0.582649 4.160987,1.747697 1.165048,1.165048 1.747697,2.579314 1.747697,4.243669 0,1.664354 -0.582649,3.079137 -1.747697,4.244185 -1.10957,1.10957 -2.496632,1.664498 -4.160987,1.664498 -1.664354,0 -3.079137,-0.554928 -4.244185,-1.664498 -1.165048,-1.165048 -1.747697,-2.579831 -1.747697,-4.244185 0,-1.664355 0.582649,-3.078621 1.747697,-4.243669 1.165048,-1.165048 2.579831,-1.747697 4.244185,-1.747697 z" />
    <g
       id="g9236"
       transform="matrix(0.1761293,0,0,0.1761293,-2.4999999,28.552632)"
       style="display:inline"
       inkscape:label="would-you-give-up-pizza-to-stop-rape">
      <text
         xml:space="preserve"
         style="font-weight:bold;font-size:25.4px;font-family:Inter;-inkscape-font-specification:'Inter Bold';text-align:center;text-anchor:middle;fill:#000000;fill-opacity:1;stroke:#000000;stroke-width:0;stroke-opacity:0.2"
         x="126.36487"
         y="17.779999"
         id="text9220"
         inkscape:label="would-you"><tspan
           sodipodi:role="line"
           id="tspan9218"
           style="font-style:normal;font-variant:normal;font-weight:bold;font-stretch:normal;font-size:25.4px;font-family:'Uber Move';-inkscape-font-specification:'Uber Move Bold';fill:#000000;fill-opacity:1;stroke-width:0"
           x="126.36487"
           y="17.779999">Would  you</tspan></text>
      <text
         xml:space="preserve"
         style="font-style:normal;font-variant:normal;font-weight:bold;font-stretch:normal;font-size:25.4px;font-family:'Uber Move';-inkscape-font-specification:'Uber Move Bold';text-align:center;text-anchor:middle;fill:#000000;fill-opacity:1;stroke:#000000;stroke-width:0;stroke-opacity:0.2"
         x="110.10885"
         y="56.311798"
         id="text9226"
         inkscape:label="give-up-pizza"><tspan
           sodipodi:role="line"
           id="tspan9224"
           style="stroke-width:0"
           x="110.10886"
           y="56.311798">give up <tspan
   style="fill:#bf360c;fill-opacity:1"
   id="tspan9222">PIZZA</tspan></tspan></text>
      <text
         xml:space="preserve"
         style="font-style:normal;font-variant:normal;font-weight:bold;font-stretch:normal;font-size:25.4px;font-family:'Uber Move';-inkscape-font-specification:'Uber Move Bold';text-align:center;text-anchor:middle;fill:#bf360c;fill-opacity:1;stroke:#000000;stroke-width:0;stroke-opacity:0.2"
         x="149.59322"
         y="93.1418"
         id="text9230"
         inkscape:label="to-stop"><tspan
           sodipodi:role="line"
           id="tspan9228"
           style="fill:#000000;fill-opacity:1;stroke-width:0"
           x="149.59322"
           y="93.1418">to stop</tspan></text>
      <text
         xml:space="preserve"
         style="font-style:normal;font-variant:normal;font-weight:bold;font-stretch:normal;font-size:50.8px;font-family:'Uber Move';-inkscape-font-specification:'Uber Move Bold';text-align:center;text-anchor:middle;fill:#000000;fill-opacity:1;stroke:#000000;stroke-width:0;stroke-opacity:0.2"
         x="138.83626"
         y="141.224"
         id="text9234"
         inkscape:label="rape"><tspan
           sodipodi:role="line"
           id="tspan9232"
           style="font-size:50.8px;fill:#5d4037;fill-opacity:1;stroke-width:0"
           x="138.83626"
           y="141.224">rape</tspan></text>
    </g>
    <path
       id="text1946-6"
       style="font-style:normal;font-variant:normal;font-weight:bold;font-stretch:normal;font-size:83.2178px;font-family:'Uber Move';-inkscape-font-specification:'Uber Move Bold';display:inline;fill:#ffffff;fill-opacity:1;stroke-width:2.35893;stroke-opacity:0.952941"
       d="M 40.900346 7.5705973 C 36.573025 7.5705973 32.884121 8.4586894 29.832804 10.234001 C 26.836967 11.953833 24.229165 14.228471 22.010026 17.057874 L 29.832804 22.716443 C 31.108809 20.99661 32.634475 19.637268 34.409786 18.638656 C 36.240576 17.640043 38.320653 17.141073 40.650749 17.141073 C 41.926754 17.141073 43.119772 17.362837 44.229342 17.806665 C 45.338911 18.250493 46.309648 18.860862 47.141825 19.637561 C 47.974002 20.358781 48.612093 21.274077 49.05592 22.383647 C 49.555227 23.437738 49.804712 24.574798 49.804712 25.795325 C 49.804712 26.960373 49.555227 28.070229 49.05592 29.12432 C 48.612093 30.122933 47.974002 31.010508 47.141825 31.787207 C 46.365127 32.508427 45.42211 33.091076 44.312541 33.534904 C 43.202971 33.923253 42.009953 34.117297 40.733948 34.117297 L 36.073767 34.117297 L 36.406563 50.927124 L 45.144531 50.927124 L 45.394128 42.272872 C 47.023942 42.105712 48.55911 41.717503 50.000049 41.109635 L 50.000049 9.5343018 C 49.559723 9.3382361 49.106612 9.1552025 48.639925 8.985498 C 46.254351 8.042364 43.67427 7.5705973 40.900346 7.5705973 z M 40.733948 55.670504 C 39.069593 55.670504 37.65481 56.253153 36.489762 57.418201 C 35.324714 58.583249 34.742582 59.998032 34.742582 61.662386 C 34.742582 63.32674 35.324714 64.741523 36.489762 65.906571 C 37.65481 67.016141 39.069593 67.571069 40.733948 67.571069 C 42.398302 67.571069 43.785365 67.016141 44.894934 65.906571 C 46.059982 64.741523 46.642631 63.32674 46.642631 61.662386 C 46.642631 59.998032 46.059982 58.583249 44.894934 57.418201 C 43.785365 56.253153 42.398302 55.670504 40.733948 55.670504 z " />
    <text
       xml:space="preserve"
       style="font-style:normal;font-variant:normal;font-weight:bold;font-stretch:normal;font-size:4.47368px;font-family:'Uber Move';-inkscape-font-specification:'Uber Move Bold';text-align:center;text-anchor:middle;display:inline;fill:#000000;fill-opacity:1;stroke:#000000;stroke-width:0;stroke-opacity:0.2"
       x="27.435617"
       y="63.843582"
       id="text9240"
       inkscape:label="and-why-so"><tspan
         sodipodi:role="line"
         id="tspan9238"
         style="font-size:4.47368px;stroke-width:0"
         x="27.435617"
         y="63.843582">and *why* so?</tspan></text>
  </g>
</svg>
