<?xml version="1.0" encoding="UTF-8" standalone="no"?>
<!-- Created with Inkscape (http://www.inkscape.org/) -->

<svg
   width="13in"
   height="19in"
   viewBox="0 0 330.20001 482.6"
   version="1.1"
   id="svg5"
   inkscape:export-filename="pizza-rape.pdf"
   inkscape:export-xdpi="96"
   inkscape:export-ydpi="96"
   inkscape:version="1.2.2 (b0a84865, 2022-12-01)"
   sodipodi:docname="pizza-rape.svg"
   xmlns:inkscape="http://www.inkscape.org/namespaces/inkscape"
   xmlns:sodipodi="http://sodipodi.sourceforge.net/DTD/sodipodi-0.dtd"
   xmlns="http://www.w3.org/2000/svg"
   xmlns:svg="http://www.w3.org/2000/svg">
  <sodipodi:namedview
     id="namedview7"
     pagecolor="#ffffff"
     bordercolor="#000000"
     borderopacity="0.25"
     inkscape:showpageshadow="2"
     inkscape:pageopacity="0.0"
     inkscape:pagecheckerboard="0"
     inkscape:deskcolor="#d1d1d1"
     inkscape:document-units="mm"
     showgrid="false"
     inkscape:zoom="0.4"
     inkscape:cx="451.25"
     inkscape:cy="921.25"
     inkscape:window-width="1512"
     inkscape:window-height="945"
     inkscape:window-x="0"
     inkscape:window-y="37"
     inkscape:window-maximized="0"
     inkscape:current-layer="g9242" />
  <defs
     id="defs2" />
  <g
     inkscape:label="background"
     inkscape:groupmode="layer"
     id="layer1"
     style="display:inline">
    <rect
       style="display:inline;fill:#ffffff;fill-opacity:1;stroke:#000000;stroke-width:0;stroke-opacity:0.2"
       id="rect234"
       width="330.20001"
       height="482.60001"
       x="8.1612274e-07"
       y="8.1612274e-07"
       inkscape:label="canvas" />
    <path
       id="rect234-6"
       style="display:inline;fill:#000000;fill-opacity:1;stroke:#000000;stroke-width:0;stroke-opacity:0.2"
       inkscape:label="black-shadow"
       d="M 0,0 V 482.6 H 330.2 V 238.10175 c -6.85674,6.65254 -14.76786,12.35644 -23.73912,17.10593 -10.86557,5.92667 -22.71898,9.54845 -35.5601,10.86548 l -1.48157,51.36431 h -51.85833 l -1.97559,-99.76549 h 27.65774 c 7.57298,0 14.65227,-1.15233 21.23747,-3.45715 6.58519,-2.63408 12.18262,-6.0916 16.79225,-10.37198 4.9389,-4.60963 8.72544,-9.87752 11.35952,-15.8042 2.96333,-6.25593 4.44469,-12.84145 4.44469,-19.7559 0,-7.24371 -1.48136,-13.99347 -4.44469,-20.24941 -2.63408,-6.58519 -6.42062,-12.01785 -11.35952,-16.29823 -4.93889,-4.60963 -10.70109,-8.23141 -17.28628,-10.86549 -6.58519,-2.63407 -13.66449,-3.95118 -21.23746,-3.95118 -13.82891,0 -26.1761,2.96323 -37.04167,8.8899 -10.53631,5.92668 -19.59074,13.99354 -27.16372,24.20059 l -46.42559,-33.58451 c 13.17039,-16.792246 28.64557,-30.291772 46.42559,-40.498822 18.10929,-10.53631 40.0047,-15.80472 65.68695,-15.80472 16.46298,0 31.77391,2.798972 45.93208,8.396387 14.48743,5.268155 26.83462,12.676469 37.04167,22.225 1.0203,0.892762 2.01861,1.802824 2.99568,2.729549 V 0 Z m 243.24303,345.58924 c 9.87779,0 18.10943,3.45752 24.69462,10.37198 6.91445,6.91445 10.37146,15.31033 10.37146,25.18812 0,9.8778 -3.45701,18.27419 -10.37146,25.18865 -6.58519,6.58519 -14.81683,9.87743 -24.69462,9.87743 -9.87779,0 -18.27367,-3.29224 -25.18812,-9.87743 -6.91446,-6.91446 -10.37198,-15.31085 -10.37198,-25.18865 0,-9.87779 3.45752,-18.27367 10.37198,-25.18812 6.91445,-6.91446 15.31033,-10.37198 25.18812,-10.37198 z" />
    <path
       id="rect234-6-1"
       style="display:inline;fill:#ffd600;fill-opacity:1;stroke:#000000;stroke-width:0;stroke-opacity:0.2"
       inkscape:label="yellow-background"
       d="M 0,0 V 63.5 482.6 H 5.0797933 330.2 V 243.18154 c -6.75122,6.6525 -14.54056,12.35648 -23.37377,17.10593 -10.69839,5.92667 -22.36987,9.54845 -35.01336,10.86549 l -1.45831,51.3643 h -51.06097 l -1.9451,-99.76548 h 27.23245 c 7.45644,0 14.42698,-1.15234 20.91087,-3.45716 6.48385,-2.63405 11.99514,-6.09163 16.53387,-10.37197 4.86287,-4.60964 8.59078,-9.87753 11.18433,-15.80421 2.91774,-6.2559 4.37648,-12.84145 4.37648,-19.7559 0,-7.24367 -1.45874,-13.99347 -4.37648,-20.24941 -2.59355,-6.58516 -6.32146,-12.01786 -11.18433,-16.29823 -4.86292,-4.60961 -10.53679,-8.2314 -17.02067,-10.86548 -6.48385,-2.63407 -13.45392,-3.95118 -20.91035,-3.95118 -13.6161,0 -25.77381,2.96325 -36.47219,8.88989 -10.37418,5.92668 -19.28918,13.99357 -26.74566,24.20059 l -45.71142,-33.58451 c 12.96774,-16.79219 28.205,-30.2918 45.71142,-40.498819 17.83066,-10.536277 39.3891,-15.80472 64.67616,-15.80472 16.20963,0 31.28538,2.79899 45.22566,8.396387 14.26453,5.268141 26.42168,12.676499 36.47168,22.225 1.00459,0.892759 1.98765,1.802826 2.94969,2.729549 V 63.5 5.0797933 0 H 25.4 Z m 244.58094,350.66903 c 9.72579,0 17.83094,3.45755 24.31479,10.37198 6.80806,6.91443 10.21178,15.31037 10.21178,25.18813 0,9.87778 -3.40372,18.2742 -10.21178,25.18864 -6.48385,6.58516 -14.589,9.87743 -24.31479,9.87743 -9.72578,0 -17.99249,-3.29227 -24.80056,-9.87743 -6.80805,-6.91444 -10.21281,-15.31086 -10.21281,-25.18864 0,-9.87776 3.40476,-18.2737 10.21281,-25.18813 6.80807,-6.91443 15.07478,-10.37198 24.80056,-10.37198 z" />
  </g>
  <g
     inkscape:label="text"
     inkscape:groupmode="layer"
     id="g9242"
     style="display:inline">
    <g
       id="g9236"
       transform="translate(0,190.5)"
       style="display:inline"
       inkscape:label="would-you-give-up-pizza-to-stop-rape">
      <text
         xml:space="preserve"
         style="font-weight:bold;font-size:25.4px;font-family:Inter;-inkscape-font-specification:'Inter Bold';text-align:center;text-anchor:middle;fill:#000000;fill-opacity:1;stroke:#000000;stroke-width:0;stroke-opacity:0.2"
         x="126.36487"
         y="17.779999"
         id="text9220"
         inkscape:label="would-you"><tspan
           sodipodi:role="line"
           id="tspan9218"
           style="font-style:normal;font-variant:normal;font-weight:bold;font-stretch:normal;font-size:25.4px;font-family:'Uber Move';-inkscape-font-specification:'Uber Move Bold';fill:#000000;fill-opacity:1;stroke-width:0"
           x="126.36487"
           y="17.779999">Would  you</tspan></text>
      <text
         xml:space="preserve"
         style="font-style:normal;font-variant:normal;font-weight:bold;font-stretch:normal;font-size:25.4px;font-family:'Uber Move';-inkscape-font-specification:'Uber Move Bold';text-align:center;text-anchor:middle;fill:#000000;fill-opacity:1;stroke:#000000;stroke-width:0;stroke-opacity:0.2"
         x="110.10885"
         y="56.311798"
         id="text9226"
         inkscape:label="give-up-pizza"><tspan
           sodipodi:role="line"
           id="tspan9224"
           style="stroke-width:0"
           x="110.10886"
           y="56.311798">give up <tspan
   style="fill:#bf360c;fill-opacity:1"
   id="tspan9222">PIZZA</tspan></tspan></text>
      <text
         xml:space="preserve"
         style="font-style:normal;font-variant:normal;font-weight:bold;font-stretch:normal;font-size:25.4px;font-family:'Uber Move';-inkscape-font-specification:'Uber Move Bold';text-align:center;text-anchor:middle;fill:#bf360c;fill-opacity:1;stroke:#000000;stroke-width:0;stroke-opacity:0.2"
         x="149.59322"
         y="93.1418"
         id="text9230"
         inkscape:label="to-stop"><tspan
           sodipodi:role="line"
           id="tspan9228"
           style="fill:#000000;fill-opacity:1;stroke-width:0"
           x="149.59322"
           y="93.1418">to stop</tspan></text>
      <text
         xml:space="preserve"
         style="font-style:normal;font-variant:normal;font-weight:bold;font-stretch:normal;font-size:50.8px;font-family:'Uber Move';-inkscape-font-specification:'Uber Move Bold';text-align:center;text-anchor:middle;fill:#000000;fill-opacity:1;stroke:#000000;stroke-width:0;stroke-opacity:0.2"
         x="138.83626"
         y="141.224"
         id="text9234"
         inkscape:label="rape"><tspan
           sodipodi:role="line"
           id="tspan9232"
           style="font-size:50.8px;fill:#5d4037;fill-opacity:1;stroke-width:0"
           x="138.83626"
           y="141.224">rape</tspan></text>
    </g>
    <text
       xml:space="preserve"
       style="font-style:normal;font-variant:normal;font-weight:bold;font-stretch:normal;font-size:25.4px;font-family:'Uber Move';-inkscape-font-specification:'Uber Move Bold';text-align:center;text-anchor:middle;display:inline;fill:#000000;fill-opacity:1;stroke:#000000;stroke-width:0;stroke-opacity:0.2"
       x="169.96387"
       y="390.86957"
       id="text9240"
       inkscape:label="and-why-so"><tspan
         sodipodi:role="line"
         id="tspan9238"
         style="font-size:25.4px;stroke-width:0"
         x="169.96387"
         y="390.86957">and *why* so?</tspan></text>
    <text
       xml:space="preserve"
       style="font-style:normal;font-variant:normal;font-weight:bold;font-stretch:normal;font-size:14.1111px;font-family:'Uber Move';-inkscape-font-specification:'Uber Move Bold';text-align:center;text-anchor:middle;display:inline;fill:#01579b;fill-opacity:1;stroke:#000000;stroke-width:0;stroke-opacity:0.2"
       x="100.76715"
       y="453.88388"
       id="text9298"
       inkscape:label="link"><tspan
         sodipodi:role="line"
         id="tspan9296"
         style="font-style:normal;font-variant:normal;font-weight:500;font-stretch:normal;font-size:14.1111px;font-family:Inconsolata;-inkscape-font-specification:'Inconsolata Medium';stroke-width:0"
         x="100.76715"
         y="453.88388">bbal.in/pizza-rape</tspan></text>
  </g>
</svg>
